<svg width="179" height="30" viewBox="0 0 179 30" fill="none" xmlns="http://www.w3.org/2000/svg">
<path d="M33.4298 0H40.4701L24.8465 30H17.8062L33.4298 0Z" fill="#FDCB02"/>
<path d="M32.4649 11.7641H25.7253C24.233 11.7641 23.019 10.5368 23.019 9.0282C23.019 7.51959 24.233 6.29225 25.7253 6.29225H37.159L40.436 0H25.7253C20.8013 0 16.795 4.04997 16.795 9.0282C16.795 14.0064 20.801 18.0564 25.7253 18.0564H32.4649C34.0047 18.0564 35.2577 19.323 35.2577 20.8798C35.2577 22.4389 34.0028 23.7078 32.4606 23.7078H22.9663L26.2433 30H32.4606C37.4348 30 41.4817 25.9088 41.4817 20.8798C41.4814 15.8534 37.4367 11.7641 32.4649 11.7641Z" fill="#0A97B0"/>
<path d="M41.8732 0.000244141L38.6354 6.28297H39.8122C44.0864 6.28297 48.0088 3.86393 50 0.000244141H41.8732Z" fill="#FDCB02"/>
<path d="M10.9603 23.7173L14.1982 30H13.0213C8.74719 30 4.82469 27.581 2.8335 23.7173H10.9603Z" fill="#FDCB02"/>
<path d="M9.18775 0H8.87694H8.68808H8.37703H2.95817H2.64712H2.4585H0L15.6238 30H18.0821H18.2709H18.5818H24.0009H24.3117H24.5005H24.8116L9.18775 0Z" fill="#0A97B0"/>
<path d="M61.848 6.92C63.288 6.92 64.552 7.168 65.64 7.664C66.728 8.16 67.656 8.896 68.424 9.872L66.576 12.008C65.92 11.176 65.2 10.568 64.416 10.184C63.648 9.784 62.752 9.584 61.728 9.584C61.056 9.584 60.496 9.672 60.048 9.848C59.616 10.024 59.296 10.256 59.088 10.544C58.896 10.832 58.8 11.152 58.8 11.504C58.8 11.936 58.968 12.304 59.304 12.608C59.64 12.896 60.216 13.136 61.032 13.328L63.984 14C65.552 14.352 66.672 14.88 67.344 15.584C68.032 16.272 68.376 17.168 68.376 18.272C68.376 19.312 68.104 20.208 67.56 20.96C67.016 21.696 66.256 22.264 65.28 22.664C64.304 23.048 63.184 23.24 61.92 23.24C60.816 23.24 59.8 23.112 58.872 22.856C57.96 22.584 57.144 22.216 56.424 21.752C55.704 21.288 55.104 20.752 54.624 20.144L56.496 17.912C56.864 18.424 57.32 18.88 57.864 19.28C58.408 19.68 59.024 20 59.712 20.24C60.416 20.464 61.152 20.576 61.92 20.576C62.576 20.576 63.128 20.504 63.576 20.36C64.04 20.2 64.384 19.984 64.608 19.712C64.848 19.424 64.968 19.08 64.968 18.68C64.968 18.264 64.824 17.912 64.536 17.624C64.264 17.32 63.752 17.088 63 16.928L59.784 16.208C58.856 15.984 58.056 15.696 57.384 15.344C56.728 14.976 56.224 14.512 55.872 13.952C55.536 13.376 55.368 12.696 55.368 11.912C55.368 10.968 55.624 10.12 56.136 9.368C56.648 8.616 57.384 8.024 58.344 7.592C59.32 7.144 60.488 6.92 61.848 6.92ZM75.4213 7.328V19.088C75.4213 19.664 75.5653 20.088 75.8533 20.36C76.1573 20.616 76.5653 20.744 77.0773 20.744C77.4773 20.744 77.8293 20.688 78.1333 20.576C78.4373 20.448 78.7093 20.28 78.9493 20.072L79.4773 22.256C79.0933 22.56 78.6133 22.8 78.0373 22.976C77.4613 23.152 76.8533 23.24 76.2133 23.24C75.4133 23.24 74.7013 23.12 74.0773 22.88C73.4693 22.64 72.9893 22.256 72.6373 21.728C72.3013 21.2 72.1333 20.496 72.1333 19.616V8.24L75.4213 7.328ZM79.2613 11V13.448H69.9253V11H79.2613ZM88.443 15.344C88.443 14.656 88.243 14.12 87.843 13.736C87.459 13.352 86.947 13.16 86.307 13.16C85.715 13.16 85.195 13.312 84.747 13.616C84.299 13.92 83.971 14.424 83.763 15.128L80.955 14.264C81.227 13.208 81.819 12.36 82.731 11.72C83.659 11.08 84.899 10.76 86.451 10.76C87.507 10.76 88.427 10.928 89.211 11.264C89.995 11.584 90.603 12.072 91.035 12.728C91.483 13.384 91.707 14.208 91.707 15.2V20.072C91.707 20.68 91.995 20.984 92.571 20.984C92.843 20.984 93.099 20.944 93.339 20.864L93.147 22.904C92.731 23.112 92.211 23.216 91.587 23.216C91.027 23.216 90.523 23.12 90.075 22.928C89.627 22.736 89.275 22.448 89.019 22.064C88.763 21.664 88.635 21.168 88.635 20.576V20.48L89.211 20.384C89.115 20.992 88.851 21.512 88.419 21.944C87.987 22.36 87.459 22.68 86.835 22.904C86.227 23.128 85.595 23.24 84.939 23.24C84.123 23.24 83.419 23.12 82.827 22.88C82.235 22.624 81.779 22.256 81.459 21.776C81.139 21.296 80.979 20.704 80.979 20C80.979 19.104 81.267 18.376 81.843 17.816C82.419 17.24 83.243 16.848 84.315 16.64L88.827 15.728L88.803 17.768L85.923 18.344C85.379 18.456 84.963 18.608 84.675 18.8C84.403 18.976 84.267 19.272 84.267 19.688C84.267 20.088 84.411 20.392 84.699 20.6C85.003 20.808 85.363 20.912 85.779 20.912C86.115 20.912 86.443 20.872 86.763 20.792C87.083 20.712 87.371 20.584 87.627 20.408C87.883 20.232 88.083 19.992 88.227 19.688C88.371 19.384 88.443 19.016 88.443 18.584V15.344ZM100.785 10.76C101.857 10.76 102.761 10.92 103.497 11.24C104.249 11.544 104.849 11.968 105.297 12.512C105.761 13.04 106.089 13.632 106.281 14.288L103.209 15.392C103.049 14.672 102.777 14.128 102.393 13.76C102.009 13.392 101.489 13.208 100.833 13.208C100.225 13.208 99.7054 13.352 99.2734 13.64C98.8414 13.912 98.5134 14.336 98.2894 14.912C98.0654 15.472 97.9534 16.176 97.9534 17.024C97.9534 17.872 98.0654 18.576 98.2894 19.136C98.5294 19.696 98.8654 20.112 99.2974 20.384C99.7454 20.656 100.265 20.792 100.857 20.792C101.337 20.792 101.745 20.712 102.081 20.552C102.417 20.376 102.689 20.128 102.897 19.808C103.121 19.488 103.273 19.104 103.353 18.656L106.329 19.616C106.153 20.336 105.825 20.968 105.345 21.512C104.865 22.056 104.249 22.48 103.497 22.784C102.745 23.088 101.873 23.24 100.881 23.24C99.6494 23.24 98.5614 22.992 97.6174 22.496C96.6734 22 95.9454 21.288 95.4334 20.36C94.9214 19.432 94.6654 18.312 94.6654 17C94.6654 15.688 94.9214 14.568 95.4334 13.64C95.9454 12.712 96.6654 12 97.5934 11.504C98.5214 11.008 99.5854 10.76 100.785 10.76ZM121.1 11L115.556 16.784L114.908 17.096L111.308 20.96L111.26 17.456L117.356 11H121.1ZM112.172 5.744V23H108.884V5.744H112.172ZM116.012 14.816L121.388 23H117.668L113.756 16.736L116.012 14.816Z" fill="#0A97B0"/>
<path d="M137.244 7.16L131.484 23H127.62L121.836 7.16H125.34L128.676 17.24L129.588 20.36L130.476 17.264L133.836 7.16H137.244ZM140.962 9.272C140.274 9.272 139.762 9.128 139.426 8.84C139.09 8.536 138.922 8.096 138.922 7.52C138.922 6.928 139.09 6.488 139.426 6.2C139.762 5.896 140.274 5.744 140.962 5.744C141.65 5.744 142.162 5.896 142.498 6.2C142.834 6.488 143.002 6.928 143.002 7.52C143.002 8.096 142.834 8.536 142.498 8.84C142.162 9.128 141.65 9.272 140.962 9.272ZM142.594 11V23H139.306V11H142.594ZM151.648 23.24C150.384 23.24 149.28 22.992 148.336 22.496C147.408 22 146.688 21.288 146.176 20.36C145.664 19.432 145.408 18.312 145.408 17C145.408 15.688 145.664 14.568 146.176 13.64C146.688 12.712 147.4 12 148.312 11.504C149.24 11.008 150.296 10.76 151.48 10.76C152.696 10.76 153.728 11.008 154.576 11.504C155.424 11.984 156.072 12.648 156.52 13.496C156.968 14.328 157.192 15.28 157.192 16.352C157.192 16.672 157.184 16.976 157.168 17.264C157.152 17.552 157.128 17.808 157.096 18.032H147.52V15.752H155.656L154.072 16.328C154.072 15.32 153.84 14.544 153.376 14C152.928 13.456 152.288 13.184 151.456 13.184C150.848 13.184 150.32 13.328 149.872 13.616C149.44 13.904 149.112 14.336 148.888 14.912C148.664 15.472 148.552 16.184 148.552 17.048C148.552 17.896 148.672 18.6 148.912 19.16C149.168 19.704 149.52 20.112 149.968 20.384C150.432 20.656 150.984 20.792 151.624 20.792C152.328 20.792 152.896 20.656 153.328 20.384C153.76 20.112 154.096 19.736 154.336 19.256L156.952 20.264C156.696 20.888 156.304 21.424 155.776 21.872C155.264 22.32 154.648 22.664 153.928 22.904C153.224 23.128 152.464 23.24 151.648 23.24ZM175.13 11H178.634L174.794 23H171.002L168.386 14.84L165.866 23H162.074L158.234 11H161.738L164.138 20.192L166.802 11H170.066L172.754 20.192L175.13 11Z" fill="#FDCB02"/>
</svg>
